<svg xmlns="http://www.w3.org/2000/svg" viewBox="0 0 64 64"><g id="HOUSE-8" data-name="HOUSE"><path d="M63,51H60.12V23a1,1,0,0,0-.2-.61l-6.79-9a1,1,0,0,0-1.53,0l-6.79,9c-.4.36-.12,2.39-.2,2.86H40.73V14.83a1,1,0,0,0-.31-.73L29.27,3.27a1,1,0,0,0-1.33,0l-9.3,9-4.34-5A1,1,0,0,0,13.58,7a.94.94,0,0,0-.72.33l-8.73,10a1,1,0,0,0-.25.67V51H1a1,1,0,0,0,0,2H63A1,1,0,0,0,63,51ZM44.61,47.25H40.73v-9.5h3.88Zm-3.88,1.5h3.88V51H40.73Zm3.88-22v9.5H40.73v-9.5Zm-16-21.38,10.18,9.89V30.37L30.27,21.3a1,1,0,0,0-1.39,0l-5.61,6V18c.2-.53-3.09-3.78-3.33-4.21ZM5.82,51V18.38L13.58,9.5l7.75,8.88v11c-.31.48-3,2.87-2.91,3.5V51H5.82ZM22.3,51H20.36V33.24l9.22-9.8,9.21,9.8V51Zm24.25,0V23.34l5.81-7.71,5.82,7.71V51Z"/><path d="M15.52,37.25H9.7A.74.74,0,0,0,9,38v6a.74.74,0,0,0,.73.75h5.82a.74.74,0,0,0,.72-.75V38A.74.74,0,0,0,15.52,37.25Zm-.73,6H10.42v-4.5h4.37Z"/><path d="M33,20.75h3.88a.74.74,0,0,0,.73-.75V16a.74.74,0,0,0-.73-.75H33a.74.74,0,0,0-.73.75v4A.74.74,0,0,0,33,20.75Zm.73-4h2.42v2.5H33.7Z"/><path d="M56.24,27.25H53.33a.74.74,0,0,0-.72.75V42a.74.74,0,0,0,.72.75h2.91A.74.74,0,0,0,57,42V28A.74.74,0,0,0,56.24,27.25Zm-.72,14H54.06V28.75h1.46Z"/></g></svg>